<svg xmlns="http://www.w3.org/2000/svg" viewBox="0 0 92 92"><defs><style>.cls-1{fill:#fff;}</style></defs><title>cihai</title><g id="Layer_2" data-name="Layer 2"><g id="Layer_1-2" data-name="Layer 1"><rect width="92" height="92"/><path class="cls-1" d="M6.11,44.06a2.64,2.64,0,0,1-2.64-2.65h0a2.64,2.64,0,0,1,2.64-2.64H71.42A13.76,13.76,0,0,0,80,36h0a7.91,7.91,0,0,0,3.24-6.14h0V28.69A7.92,7.92,0,0,0,80,22.55h0a13.77,13.77,0,0,0-8.58-2.82H6.11a2.64,2.64,0,0,1-2.64-2.65h0a2.64,2.64,0,0,1,2.64-2.64H71.42a19,19,0,0,1,11.89,4h0a13.2,13.2,0,0,1,5.23,10.27h0v1.12a13.2,13.2,0,0,1-5.23,10.27h0a19,19,0,0,1-11.89,4H6.11Z"/><path class="cls-1" d="M73,23.5H14.1V35.13H73a6.1,6.1,0,0,0,6.35-5.82A6.1,6.1,0,0,0,73,23.5Z"/><path class="cls-1" d="M20.58,77.55a19,19,0,0,1-11.89-4h0A13.19,13.19,0,0,1,3.46,63.31h0V62.18A13.19,13.19,0,0,1,8.69,51.92h0a19,19,0,0,1,11.89-4H85.89a2.64,2.64,0,0,1,2.64,2.64h0a2.64,2.64,0,0,1-2.64,2.64H20.58A13.75,13.75,0,0,0,12,56h0a7.92,7.92,0,0,0-3.25,6.14h0v1.12A7.92,7.92,0,0,0,12,69.45h0a13.76,13.76,0,0,0,8.58,2.82H85.89a2.64,2.64,0,0,1,2.64,2.64h0a2.64,2.64,0,0,1-2.64,2.64H20.58Z"/><path class="cls-1" d="M13,62.92a6.1,6.1,0,0,0,6.35,5.82H78.26V57.1H19.39A6.1,6.1,0,0,0,13,62.92Z"/></g></g></svg>