<?xml version="1.0" encoding="UTF-8" standalone="no"?>
<!-- Created with Inkscape (http://www.inkscape.org/) -->

<svg
   width="512"
   height="512"
   viewBox="0 0 135.46666 135.46666"
   version="1.1"
   id="svg5"
   inkscape:version="1.2.1 (9c6d41e410, 2022-07-14)"
   sodipodi:docname="cihai.svg"
   inkscape:export-filename="icon-512x512.png"
   inkscape:export-xdpi="96"
   inkscape:export-ydpi="96"
   xmlns:inkscape="http://www.inkscape.org/namespaces/inkscape"
   xmlns:sodipodi="http://sodipodi.sourceforge.net/DTD/sodipodi-0.dtd"
   xmlns="http://www.w3.org/2000/svg"
   xmlns:svg="http://www.w3.org/2000/svg"
   xmlns:rdf="http://www.w3.org/1999/02/22-rdf-syntax-ns#"
   xmlns:cc="http://creativecommons.org/ns#"
   xmlns:dc="http://purl.org/dc/elements/1.1/">
  <title
     id="title152">Inkscape</title>
  <sodipodi:namedview
     id="namedview7"
     pagecolor="#505050"
     bordercolor="#000000"
     borderopacity="1"
     inkscape:pageshadow="0"
     inkscape:pageopacity="0"
     inkscape:pagecheckerboard="true"
     inkscape:document-units="px"
     showgrid="false"
     inkscape:showpageshadow="false"
     showborder="true"
     borderlayer="true"
     inkscape:snap-bbox="true"
     inkscape:bbox-paths="true"
     inkscape:zoom="1.3416246"
     inkscape:cx="245.97045"
     inkscape:cy="203.85732"
     inkscape:window-width="1723"
     inkscape:window-height="1314"
     inkscape:window-x="846"
     inkscape:window-y="118"
     inkscape:window-maximized="0"
     inkscape:current-layer="layer1"
     showguides="false"
     inkscape:guide-bbox="true"
     inkscape:deskcolor="#505050">
    <sodipodi:guide
       position="25.365385,114.17791"
       orientation="1,0"
       id="guide1732"
       inkscape:locked="false" />
    <sodipodi:guide
       position="95.230307,86.678763"
       orientation="1,0"
       id="guide1734"
       inkscape:locked="false" />
  </sodipodi:namedview>
  <defs
     id="defs2" />
  <g
     inkscape:label="cihai"
     inkscape:groupmode="layer"
     id="layer1"
     transform="translate(-35.941156,-129.2373)">
    <path
       id="Book-1-shadow-object-Shape"
       style="fill:#0000a0;fill-opacity:1;stroke-width:1.41682"
       class="cls-1"
       inkscape:label="Book-1-shadow-object-Shape"
       d="m 40.197264,147.62047 c -1.865798,0 -3.654158,0.76219 -4.202744,2.44488 -0.11979,-0.26244 -4.82e-4,-2.7e-4 -4.82e-4,-2.7e-4 v 1.75759 c -0.0088,2.3271 1.876123,4.21828 4.203226,4.21826 H 144.1562 c 4.9277,-0.0817 9.73983,1.49949 13.65824,4.48864 3.13147,2.29068 5.03299,5.89558 5.15661,9.77348 v 1.86276 c -0.12122,3.87852 -2.02328,7.48439 -5.15661,9.77346 -3.92813,2.96186 -8.73973,4.51535 -13.65824,4.40953 H 40.197264 c -1.865798,0 -3.654158,0.76204 -4.202744,2.44473 -0.11979,-0.26243 -4.82e-4,-1e-4 -4.82e-4,-1e-4 v 1.75759 c -0.0088,2.32708 1.876123,4.28136 4.203226,4.28135 H 144.1562 c 6.84771,0.0816 13.52106,-2.16249 18.92703,-6.36644 5.13296,-3.88602 8.2003,-9.91135 8.32433,-16.34819 v -1.78265 c -0.12395,-6.43686 -3.19136,-12.46117 -8.32433,-16.3472 -5.40597,-4.20395 -12.07932,-6.44903 -18.92703,-6.36742 z"
       sodipodi:nodetypes="sccccccccccsccccccccccs">
      <title
         id="title1509">Book 1 shadow object (Shape)</title>
    </path>
    <path
       class="cls-1"
       d="M 146.67145,162.04196 H 52.915216 v 18.51248 h 93.756234 a 9.7098996,9.7098996 0 0 0 10.10786,-9.26421 9.7098996,9.7098996 0 0 0 -10.10786,-9.24827 z"
       id="Pages-1-shadow-object-Shape"
       style="fill:#989898;fill-opacity:1;stroke-width:1.41682"
       inkscape:label="Pages-1-shadow-object-Shape">
      <title
         id="title1669">Pages 1 shadow object (Shape)</title>
    </path>
    <path
       id="Book-2-shadow-object-Shape"
       style="fill:#0000a0;fill-opacity:1;stroke-width:1.41682"
       class="cls-1"
       inkscape:label="Book-2-shadow-object-Shape"
       d="m 63.23037,200.91337 c -6.847962,-0.0817 -13.520908,2.16324 -18.927028,6.36743 -5.130068,3.88106 -8.197877,9.89969 -8.324323,16.33118 v 1.79866 c 0.135882,6.42053 3.202705,12.42579 8.324323,16.30015 5.40612,4.20417 12.079066,6.44909 18.927028,6.36742 h 103.95894 c 2.3208,-4e-5 4.20217,-1.88142 4.20222,-4.20222 v -1.7576 0 c -0.62927,-1.59028 -2.49203,-2.42924 -4.20222,-2.44462 H 63.23037 c -4.928217,0.083 -9.74033,-1.49894 -13.658225,-4.48965 -3.158798,-2.30435 -5.069605,-5.94395 -5.17266,-9.85258 v -1.78265 c 0.127242,-3.88053 2.03544,-7.48598 5.17266,-9.77347 3.921475,-2.98038 8.733604,-4.55089 13.658225,-4.45759 h 103.95894 c 2.3208,-6e-5 4.20217,-1.88143 4.20222,-4.20223 v -1.75761 0 c -0.61559,-1.63809 -2.45228,-2.44382 -4.20222,-2.44462 z"
       sodipodi:nodetypes="cccccccsccccccccccscccc">
      <title
         id="title1511">Book 2 shadow object (Shape)</title>
    </path>
    <path
       class="cls-1"
       d="m 51.16425,224.7902 a 9.7098996,9.7098996 0 0 0 10.107846,9.26419 H 155.04426 V 215.52598 H 61.335771 A 9.7098996,9.7098996 0 0 0 51.16425,224.7902 Z"
       id="Pages-2-shadow-object-Shape"
       style="fill:#989898;fill-opacity:1;stroke-width:1.41682"
       inkscape:label="Pages-2-shadow-object-Shape">
      <title
         id="title1671">Pages 2 shadow object (Shape)</title>
    </path>
    <path
       class="cls-1"
       d="m 40.196838,193.07542 c -2.327109,2e-5 -4.211137,-1.95481 -4.202317,-4.28189 v 0 c 2e-6,-2.32089 1.881442,-4.20231 4.202317,-4.20231 H 144.15643 c 4.9185,0.10574 9.72938,-1.44742 13.65753,-4.40927 v 0 c 3.13333,-2.28907 5.03616,-5.89504 5.15738,-9.77356 v 0 -1.86238 c -0.12359,-3.8779 -2.0259,-7.48289 -5.15738,-9.77356 v 0 c -3.9184,-2.98916 -8.72983,-4.57054 -13.65753,-4.48886 H 40.196838 c -2.327109,2e-5 -4.211137,-1.89115 -4.202317,-4.21824 v 0 c 2e-6,-2.32088 1.881442,-4.20231 4.202317,-4.20231 H 144.15643 c 6.84771,-0.0816 13.52038,2.16321 18.92635,6.36714 v 0 c 5.13297,3.88602 8.20109,9.9108 8.32504,16.34767 v 0 1.78279 c -0.12396,6.43685 -3.19207,12.46162 -8.32504,16.34765 v 0 c -5.40597,4.20393 -12.07864,6.44874 -18.92635,6.36713 z"
       id="Book-1-object-Shape"
       style="fill:#5555ff;fill-opacity:1;stroke-width:1.41682"
       inkscape:label="Book-1-object-Shape"
       sodipodi:nodetypes="cssscsssccssccssscsssccssccc">
      <title
         id="title1451">Book 1 object (Shape)</title>
    </path>
    <path
       class="cls-1"
       d="M 146.67145,160.28461 H 52.915216 v 18.51249 h 93.756234 a 9.7098996,9.7098996 0 0 0 10.10786,-9.26419 9.7098996,9.7098996 0 0 0 -10.10786,-9.2483 z"
       id="Pages-1-object-Shape"
       style="fill:#e6e6e6;fill-opacity:1;stroke-width:1.41682"
       inkscape:label="Pages-1-object-Shape">
      <title
         id="title1665">Pages 1 object (Shape)</title>
    </path>
    <path
       class="cls-1"
       d="m 63.229993,246.32071 a 30.243948,30.243948 0 0 1 -18.926345,-6.36716 v 0 a 20.995669,20.995669 0 0 1 -8.325046,-16.29989 v 0 -1.79872 a 20.995669,20.995669 0 0 1 8.325046,-16.33174 v 0 a 30.243948,30.243948 0 0 1 18.926345,-6.36714 H 167.1896 a 4.2023173,4.2023173 0 0 1 4.20231,4.20231 v 0 a 4.2023173,4.2023173 0 0 1 -4.20231,4.2023 H 63.229993 a 21.887066,21.887066 0 0 0 -13.657532,4.45702 v 0 a 12.606951,12.606951 0 0 0 -5.173305,9.77358 v 0 1.7828 a 12.606951,12.606951 0 0 0 5.173305,9.85315 v 0 a 21.902985,21.902985 0 0 0 13.657532,4.48885 H 167.1896 a 4.2023173,4.2023173 0 0 1 4.20231,4.20231 v 0 a 4.2023173,4.2023173 0 0 1 -4.20231,4.20233 z"
       id="Book-2-object-Shape"
       style="fill:#5555ff;fill-opacity:1;stroke-width:1.41682"
       inkscape:label="Book-2-object-Shape">
      <title
         id="title1469">Book 2 object (Shape)</title>
    </path>
    <path
       class="cls-1"
       d="m 51.16425,223.03286 a 9.7098996,9.7098996 0 0 0 10.107846,9.2642 h 93.772164 v -18.5284 H 61.335771 a 9.7098996,9.7098996 0 0 0 -10.171521,9.2642 z"
       id="Pages-2-object-Shape"
       style="fill:#e6e6e6;fill-opacity:1;stroke-width:1.41682"
       inkscape:label="Pages-2-object-Shape">
      <title
         id="title1667">Pages 2 object (Shape)</title>
    </path>
  </g>
  <metadata
     id="metadata150">
    <rdf:RDF>
      <cc:Work
         rdf:about="">
        <dc:title>Inkscape</dc:title>
      </cc:Work>
    </rdf:RDF>
  </metadata>
</svg>
