<?xml version="1.0" encoding="UTF-8" standalone="no"?>
<svg
   id="cihai-logo-svg"
   width="512"
   height="512"
   version="1.1"
   sodipodi:docname="cihai-new-o1-pro-optimized.svg"
   inkscape:version="1.4 (86a8ad7, 2024-10-11)"
   xmlns:inkscape="http://www.inkscape.org/namespaces/inkscape"
   xmlns:sodipodi="http://sodipodi.sourceforge.net/DTD/sodipodi-0.dtd"
   xmlns="http://www.w3.org/2000/svg"
   xmlns:svg="http://www.w3.org/2000/svg">
  <defs
     id="defs1" />
  <sodipodi:namedview
     id="namedview1"
     pagecolor="#ffffff"
     bordercolor="#000000"
     borderopacity="0.25"
     inkscape:showpageshadow="2"
     inkscape:pageopacity="0.0"
     inkscape:pagecheckerboard="0"
     inkscape:deskcolor="#d1d1d1"
     inkscape:zoom="1.8681641"
     inkscape:cx="152.28855"
     inkscape:cy="261.21903"
     inkscape:window-width="2629"
     inkscape:window-height="1490"
     inkscape:window-x="128"
     inkscape:window-y="128"
     inkscape:window-maximized="0"
     inkscape:current-layer="layer-bottom-book" />
  <!-- Document Title & Description -->
  <title
     id="cihai-title1">Cihai Logo</title>
  <desc
     id="cihai-desc1">Cihai - CJK Utility Library</desc>
  <!-- Top-Level Layer for Entire Logo -->
  <g
     id="layer-cihai"
     inkscape:groupmode="layer"
     inkscape:label="Cihai Logo">
    <!-- Top Book Layer -->
    <g
       id="layer-top-book"
       inkscape:groupmode="layer"
       inkscape:label="Top Book">
      <path
         id="top--cover--bottom"
         inkscape:label="cover--bottom"
         fill="#095ddb"
         transform="scale(0.5)"
         d="m 883.99,295.991 h 48.004 c -0.028,78.685 -51.913,144.813 -129.823,159.168 -22.517,4.148 -51.86,2.44 -75.184,2.439 l -552.469,0.138 c -32.028,-0.065 -61.913,-19.305 -75.4,-48.245 6.756,-2.883 91.309,-1.229 105.655,-1.207 l 555.848,-0.094 c 7.634,0.051 15.633,0.582 23.199,-0.465 55.318,-7.656 97.854,-56.369 100.17,-111.734 z" />
      <path
         id="top--cover--top"
         inkscape:label="cover--top"
         fill="#2f9ffe"
         transform="scale(0.5)"
         d="m 96.6941,168.011 c 7.8069,-30.502 35.6119,-55.511 67.3909,-57.947 11.219,-0.859 22.751,-0.324 34.005,-0.32 l 541.019,0.018 c 24.856,-0.011 49.866,-1.896 74.11,4.63 62.595,16.849 112.929,74.029 118.37,139.223 1.162,13.925 0.431,28.383 0.405,42.376 H 883.99 c 0.017,-8.545 0.378,-17.323 -0.474,-25.832 -4.902,-48.957 -41.379,-90.795 -90.012,-99.977 -20.385,-3.849 -43.964,-2.165 -64.852,-2.164 l -611.271,0.041 c -6.687,0.038 -13.566,0.423 -20.2347,-0.015 z" />
      <path
         id="top--cover--top-shadow"
         inkscape:label="cover--top-shadow"
         fill="#067bfd"
         transform="scale(0.5)"
         d="m 96.6941,168.011 0.4522,0.033 c 6.6687,0.438 13.5477,0.053 20.2347,0.015 l 611.271,-0.041 c 20.888,-0.001 44.467,-1.685 64.852,2.164 48.633,9.182 85.11,51.02 90.012,99.977 0.852,8.509 0.491,17.287 0.474,25.832 -2.316,55.365 -44.852,104.078 -100.17,111.734 -7.566,1.047 -15.565,0.516 -23.199,0.465 l -555.848,0.094 c -14.346,-0.022 -98.899,-1.676 -105.655,1.207 -16.1486,-37.653 2.325,-30.898 29.602,-30.794 8.049,-1.687 19.997,-32.549 24.23,-40.64 l 569.535,-0.001 c 36.616,-0.002 84.353,8.065 111.628,-20.378 10.093,-10.525 22.327,-30.267 21.952,-45.319 -0.03,-20.509 -13.922,-42.571 -29.037,-55.528 -5.231,0.095 -22.793,-11.203 -39.298,-11.267 l -531.165,-3.547 c -39.455,0.027 -79.374,-0.545 -118.581,4.523 -1.929,-3.833 -4.163,-7.067 -6.935,-10.332 -26.196,-0.05 -44.9209,8.257 -34.3549,-28.197 z" />
      <path
         id="top--pages--top-shadow"
         inkscape:label="pages--top-shadow"
         fill="#d0d1d5"
         transform="scale(0.5)"
         d="m 131.049,196.208 621.369,-0.024 c 25.465,-0.003 55.962,0.374 74.61,20.647 -5.231,0.095 -22.793,-11.203 -39.298,-11.267 l -531.165,-3.547 c -39.455,0.027 -79.374,-0.545 -118.581,4.523 -1.929,-3.833 -4.163,-7.067 -6.935,-10.332 z" />
      <path
         id="top--pages--bottom-shadow"
         inkscape:label="pages--bottom-shadow"
         fill="#d0d1d5"
         transform="scale(0.5)"
         d="m 856.065,272.359 c 3.357,25.799 -1.394,51.289 -17.467,72.242 -21.968,28.637 -46.605,34.196 -79.633,34.152 l -610.717,-0.09 c -6.516,-0.044 -13.019,-0.409 -19.528,0.034 8.049,-1.687 19.997,-32.549 24.23,-40.64 l 569.535,-0.001 c 36.616,-0.002 84.353,8.065 111.628,-20.378 10.093,-10.525 22.327,-30.267 21.952,-45.319 z" />
      <path
         id="top--pages"
         inkscape:label="pages"
         fill="#fafbfb"
         transform="scale(0.5)"
         d="m 137.984,206.54 c 39.207,-5.068 79.126,-4.496 118.581,-4.523 l 531.165,3.547 c 16.505,0.064 34.067,11.362 39.298,11.267 15.115,12.957 29.007,35.019 29.037,55.528 0.375,15.052 -11.859,34.794 -21.952,45.319 -27.275,28.443 -75.012,20.376 -111.628,20.378 l -569.535,0.001 c 4.671,-5.215 7.199,-29.531 7.938,-37.556 2.754,-29.923 -3.174,-70.185 -22.904,-93.961 z"
         sodipodi:nodetypes="cccccccccc" />
    </g>
    <!-- Bottom Book Layer -->
    <g
       id="layer-bottom-book"
       inkscape:groupmode="layer"
       inkscape:label="Bottom Book">
      <path
         id="bottom--cover--bottom"
         inkscape:label="cover--bottom"
         fill="#095DDB"
         transform="scale(0.5)"
         d="M89.9081 746.974C101.71 745.904 122.785 746.528 135.009 746.974C141.094 748.171 141.097 765.547 143.448 773.312C156.172 815.346 188.952 847.809 232.474 856.991C253.594 861.446 276.655 859.624 298.12 859.614L907.617 859.622C912.872 859.627 918.619 859.17 923.812 859.615C909.897 891.231 876.538 907.613 843.088 907.927L300.226 907.927C275.976 907.927 244.469 909.709 221.303 905.147C146.926 890.503 90.5034 822.929 89.9081 746.974Z" />
      <path
         id="bottom--cover--top"
         inkscape:label="cover--top"
         fill="#2F9FFE"
         transform="scale(0.5)"
         d="M89.9081 746.974C87.6986 666.879 117.736 592.659 199.347 565.042C220.204 557.984 241.044 558.367 262.715 558.364L824.909 558.351C869.405 558.335 908.913 565.119 925.418 615.42C906.471 615.796 887.459 615.422 868.505 615.417L286.602 615.43C270.932 615.546 247.108 613.976 232.506 616.481C168.401 627.481 138.35 685.409 137.975 745.455L137.572 745.094L137.903 746.405C137.022 746.992 136.051 746.887 135.009 746.974C122.785 746.528 101.71 745.904 89.9081 746.974Z" />
      <path
         id="bottom--cover--top-shadow"
         inkscape:label="cover--top-shadow"
         fill="#067BFD"
         transform="scale(0.5)"
         d="M135.009 746.974C136.051 746.887 137.022 746.992 137.903 746.405L137.572 745.094L137.975 745.455C138.35 685.409 168.401 627.481 232.506 616.481C247.108 613.976 270.932 615.546 286.602 615.43L868.505 615.417C887.459 615.422 906.471 615.796 925.418 615.42C928.899 624.566 929.639 634.816 928.501 644.517L891.795 644.517C889.904 647.013 886.892 650.459 883.99 651.727L307.094 651.721C280.992 651.595 237.187 648.372 215.085 657.806C209.838 660.046 203.161 665.504 197.671 665.997C179.406 684.173 171.631 699.902 168.007 725.463C170.956 739.957 192.634 767.456 204.578 775.398C223.905 788.248 240.169 788.219 262.027 788.048L869.015 788.03C877.085 804.634 881.622 813.119 891.795 829.276C892.88 829.157 894.873 828.83 895.883 829.276C908.606 829.36 921.35 829.467 934.071 829.276C932.563 839.182 930.321 851.652 923.812 859.615C918.619 859.17 912.872 859.627 907.617 859.622L298.12 859.614C276.655 859.624 253.594 861.446 232.474 856.991C188.952 847.809 156.172 815.346 143.448 773.312C141.097 765.547 141.094 748.171 135.009 746.974Z" />
      <path
         id="bottom--pages--top-shadow"
         inkscape:label="pages--top-shadow"
         fill="#D0D1D5"
         transform="scale(0.5)"
         d="M197.671 665.997L198.292 665.367C218.825 644.89 247.821 644.505 274.765 644.503L891.795 644.517C889.904 647.013 886.892 650.459 883.99 651.727L307.094 651.721C280.992 651.595 237.187 648.372 215.085 657.806C209.838 660.046 203.161 665.504 197.671 665.997Z" />
      <path
         id="bottom--pages--bottom-shadow"
         inkscape:label="pages--bottom-shadow"
         fill="#D0D1D5"
         transform="scale(0.5)"
         d="M168.007 725.463C170.956 739.957 192.634 767.456 204.578 775.398C223.905 788.248 240.169 788.219 262.027 788.048L869.015 788.03C877.085 804.634 881.622 813.119 891.795 829.276C892.88 829.157 894.873 828.83 895.883 829.276C856.61 830.021 817.166 829.276 777.874 829.275L290.784 829.292C252.513 829.293 220.405 831.918 191.274 800.886C171.797 780.137 167.236 752.917 168.007 725.463Z" />
      <path
         id="bottom--pages"
         inkscape:label="pages"
         fill="#FAFBFB"
         transform="scale(0.5 0.5)"
         d="M197.671 665.997C203.161 665.504 209.838 660.046 215.085 657.806C237.187 648.372 280.992 651.595 307.094 651.721L883.99 651.727C880.511 656.216 871.286 676.783 869.1 682.84C857.727 714.366 860.175 743.35 865.514 775.167C866.067 778.463 865.681 786.156 869.015 788.03L262.027 788.048C240.169 788.219 223.905 788.248 204.578 775.398C192.634 767.456 170.956 739.957 168.007 725.463C171.631 699.902 179.406 684.173 197.671 665.997Z" />
    </g>
  </g>
</svg>
